<svg width="30" height="30" viewBox="0 0 30 30" fill="none" xmlns="http://www.w3.org/2000/svg">
<g clip-path="url(#clip0_79_2)">
<path d="M15 30.4546C6.72929 30.4546 -1.30815e-06 23.8476 -1.30815e-06 15.7273C-1.30815e-06 7.60647 6.72929 1 15 1C23.2714 1 30 7.60647 30 15.7274C30 23.8477 23.2714 30.4546 15 30.4546ZM15 1.95011C7.26231 1.95011 0.9677 8.13078 0.9677 15.7274C0.9677 23.3244 7.26231 29.5045 15 29.5045C22.5744 29.5045 28.7631 23.5804 29.0202 16.2033L13.3235 16.233L16.0472 18.9072L15.3629 19.5789L11.4735 15.7606L15.4307 11.8754L16.1149 12.5472L13.3282 15.2835L29.0206 15.2531C28.7641 7.87585 22.5754 1.95011 15 1.95011Z" fill="white" stroke="black" stroke-width="0.000640009"/>
</g>
<defs>
<clipPath id="clip0_79_2">
<rect width="30" height="30" fill="white"/>
</clipPath>
</defs>
</svg>
