<svg width="60" height="55" viewBox="0 0 60 55" fill="none" xmlns="http://www.w3.org/2000/svg">
<g clip-path="url(#clip0_4_82)">
<path d="M30 0C13.4586 0 0 12.3361 0 27.5C0 42.6639 13.4586 55 30 55C46.5414 55 60 42.6639 60 27.5C60 12.3361 46.5414 0 30 0ZM57.931 27.5C57.931 29.1585 57.7521 30.7791 57.4221 32.3504C54.6497 21.8426 50.1993 14.4527 39.0848 9.16603C39.779 8.39129 40.5072 7.60422 41.2759 6.77638C41.8438 6.16474 42.4355 5.5256 43.0376 4.8656C51.8866 9.16698 57.931 17.6967 57.931 27.5ZM8.44966 43.7705C6.53172 41.6397 4.98724 39.2178 3.89483 36.593C8.7 38.4829 12.751 39.4388 17.0007 39.4388C22.049 39.4388 27.3993 38.0771 34.6117 35.3508C35.9245 37.5242 37.0407 39.7916 37.9262 42.1632C25.0841 46.8448 19.4266 46.3422 8.44966 43.7705ZM16.5786 30.3515C21.2814 30.3515 25.6614 29.7645 29.6131 28.6066L29.7341 28.7546C31.1555 30.3278 32.43 31.9768 33.5772 33.6875C19.4017 39.0064 13.2352 38.4791 3.0331 34.1607C2.51793 32.4092 2.19724 30.5857 2.10207 28.7091C7.15448 29.7996 12.0166 30.3515 16.5786 30.3515ZM31.3593 27.5816L31.0748 27.2335C31.4928 23.5798 32.1817 20.7217 33.1179 18.3131C44.2345 25.263 49.0252 33.6979 49.0034 46.2408C46.9862 47.9609 44.6948 49.4128 42.1934 50.5308C40.9045 41.8398 37.259 34.1123 31.3593 27.5816ZM29.0503 26.7812C26.1321 27.6432 22.9583 28.1723 19.5766 28.3658C21.2007 15.1534 25.4855 10.4178 32.4631 2.71207L33.059 2.05302C35.8924 2.3375 38.5976 3.01172 41.1134 4.01595C40.6324 4.54034 40.1586 5.05241 39.6993 5.54647C34.3034 11.3556 30.3828 15.5991 29.0503 26.7812ZM30.5028 1.90793C23.6814 9.44483 19.1286 14.6926 17.4879 28.4416C15.1655 28.4805 12.7572 28.3696 10.2755 28.1088C11.8107 15.1421 15.2348 11.3698 21.9072 4.03397L23.1341 2.68078C25.3314 2.1706 27.631 1.89655 30 1.89655C30.1686 1.89655 30.3341 1.90509 30.5028 1.90793ZM19.4172 3.81112C13.2662 10.5989 9.76138 14.9704 8.22414 27.8603C6.21931 27.5872 4.17207 27.2193 2.08966 26.7566C2.41448 16.3919 9.48621 7.55302 19.4172 3.81112ZM11.0824 46.3157C14.9276 47.1369 18.1997 47.6319 21.5297 47.6319C26.3866 47.6319 31.4048 46.5689 38.5376 43.9782C39.2959 46.3403 39.8576 48.7878 40.2031 51.3254C37.0407 52.4691 33.601 53.1034 30 53.1034C22.7079 53.1034 16.0624 50.526 11.0824 46.3157ZM51.0434 44.3072C50.581 31.9721 45.3383 23.5286 33.8959 16.5028C34.9541 14.318 36.2545 12.4878 37.7721 10.6766C49.6448 16.207 53.6059 24.2882 56.249 36.2526C55.0614 39.2359 53.279 41.9584 51.0434 44.3072Z" fill="black"/>
</g>
<defs>
<clipPath id="clip0_4_82">
<rect width="60" height="55" fill="white"/>
</clipPath>
</defs>
</svg>
