<svg width="104" height="100" viewBox="0 0 104 100" fill="none" xmlns="http://www.w3.org/2000/svg">
<g clip-path="url(#clip0_25_208)">
<path fill-rule="evenodd" clip-rule="evenodd" d="M90.4349 100H13.5653C10.5672 100 7.69193 98.8548 5.57195 96.8164C3.45198 94.7779 2.26099 92.0132 2.26099 89.1304V2.17391C2.26099 1.59736 2.49918 1.04441 2.92318 0.636724C3.34718 0.229037 3.92224 0 4.52186 0H81.3914C81.9911 0 82.5661 0.229037 82.9901 0.636724C83.4141 1.04441 83.6523 1.59736 83.6523 2.17391V32.6087H99.4784C100.078 32.6087 100.653 32.8377 101.077 33.2454C101.501 33.6531 101.739 34.2061 101.739 34.7826V89.1304C101.739 92.0132 100.548 94.7779 98.4283 96.8164C96.3083 98.8548 93.433 100 90.4349 100ZM79.1306 89.1304V4.34783H6.78273V89.1304C6.78273 90.8601 7.49732 92.5189 8.76931 93.742C10.0413 94.9651 11.7665 95.6522 13.5653 95.6522H81.4412C79.9502 93.7796 79.1386 91.4888 79.1306 89.1304ZM97.2175 36.9565H83.6523V89.1304C83.6523 90.8601 84.3669 92.5189 85.6389 93.742C86.9109 94.9651 88.636 95.6522 90.4349 95.6522C92.2338 95.6522 93.9589 94.9651 95.2309 93.742C96.5029 92.5189 97.2175 90.8601 97.2175 89.1304V36.9565ZM13.5653 84.7826C13.5653 84.206 13.8035 83.6531 14.2275 83.2454C14.6515 82.8377 15.2266 82.6087 15.8262 82.6087H36.174C36.7737 82.6087 37.3487 82.8377 37.7727 83.2454C38.1967 83.6531 38.4349 84.206 38.4349 84.7826C38.4349 85.3592 38.1967 85.9121 37.7727 86.3198C37.3487 86.7275 36.7737 86.9565 36.174 86.9565H15.8262C15.2266 86.9565 14.6515 86.7275 14.2275 86.3198C13.8035 85.9121 13.5653 85.3592 13.5653 84.7826ZM24.1146 49.3804C23.912 49.5879 23.6682 49.7541 23.3975 49.8692C23.1268 49.9842 22.8349 50.0459 22.539 50.0503C22.2431 50.0548 21.9493 50.0021 21.675 49.8953C21.4007 49.7885 21.1515 49.6297 20.9423 49.4285C20.733 49.2273 20.5679 48.9877 20.4569 48.724C20.3458 48.4602 20.2909 48.1777 20.2956 47.8932C20.3003 47.6087 20.3643 47.328 20.484 47.0677C20.6037 46.8075 20.7765 46.573 20.9923 46.3783L34.3427 33.5413C34.4037 33.4312 34.4756 33.3271 34.5575 33.2304C34.996 32.8363 35.5738 32.6171 36.174 32.6171C36.7743 32.6171 37.3521 32.8363 37.7906 33.2304C37.8717 33.3277 37.9436 33.4317 38.0053 33.5413L47.4784 42.65L52.4297 37.8891C52.4907 37.7791 52.5626 37.675 52.6445 37.5783C52.8598 37.3217 53.1379 37.1204 53.4538 36.9923C53.7698 36.8642 54.1138 36.8133 54.4551 36.8441C54.7965 36.8749 55.1247 36.9864 55.4103 37.1687C55.696 37.3511 55.9303 37.5986 56.0923 37.8891L64.921 46.3783C65.1367 46.573 65.3096 46.8075 65.4293 47.0677C65.549 47.328 65.613 47.6087 65.6177 47.8932C65.6224 48.1777 65.5675 48.4602 65.4564 48.724C65.3453 48.9877 65.1803 49.2273 64.971 49.4285C64.7617 49.6297 64.5126 49.7885 64.2383 49.8953C63.964 50.0021 63.6702 50.0548 63.3743 50.0503C63.0784 50.0459 62.7864 49.9842 62.5158 49.8692C62.2451 49.7541 62.0013 49.5879 61.7987 49.3804L54.261 42.1326L50.6006 45.6522L51.3558 46.3783C51.5715 46.573 51.7444 46.8075 51.8641 47.0677C51.9837 47.328 52.0478 47.6087 52.0525 47.8932C52.0571 48.1777 52.0023 48.4602 51.8912 48.724C51.7801 48.9877 51.615 49.2273 51.4058 49.4285C51.1965 49.6297 50.9474 49.7885 50.6731 49.8953C50.3988 50.0021 50.105 50.0548 49.8091 50.0503C49.5132 50.0459 49.2212 49.9842 48.9506 49.8692C48.6799 49.7541 48.4361 49.5879 48.2335 49.3804L36.174 37.7848L24.1146 49.3804ZM49.7393 60.8696H70.0871C70.6867 60.8696 71.2618 61.0986 71.6858 61.5063C72.1097 61.914 72.3479 62.4669 72.3479 63.0435C72.3479 63.62 72.1097 64.173 71.6858 64.5807C71.2618 64.9884 70.6867 65.2174 70.0871 65.2174H49.7393C49.1396 65.2174 48.5646 64.9884 48.1406 64.5807C47.7166 64.173 47.4784 63.62 47.4784 63.0435C47.4784 62.4669 47.7166 61.914 48.1406 61.5063C48.5646 61.0986 49.1396 60.8696 49.7393 60.8696ZM49.7393 71.7391H70.0871C70.6867 71.7391 71.2618 71.9682 71.6858 72.3759C72.1097 72.7835 72.3479 73.3365 72.3479 73.913C72.3479 74.4896 72.1097 75.0425 71.6858 75.4502C71.2618 75.8579 70.6867 76.087 70.0871 76.087H49.7393C49.1396 76.087 48.5646 75.8579 48.1406 75.4502C47.7166 75.0425 47.4784 74.4896 47.4784 73.913C47.4784 73.3365 47.7166 72.7835 48.1406 72.3759C48.5646 71.9682 49.1396 71.7391 49.7393 71.7391ZM49.7393 82.6087H70.0871C70.6867 82.6087 71.2618 82.8377 71.6858 83.2454C72.1097 83.6531 72.3479 84.206 72.3479 84.7826C72.3479 85.3592 72.1097 85.9121 71.6858 86.3198C71.2618 86.7275 70.6867 86.9565 70.0871 86.9565H49.7393C49.1396 86.9565 48.5646 86.7275 48.1406 86.3198C47.7166 85.9121 47.4784 85.3592 47.4784 84.7826C47.4784 84.206 47.7166 83.6531 48.1406 83.2454C48.5646 82.8377 49.1396 82.6087 49.7393 82.6087ZM52.0001 31.5217C52.0001 32.1667 51.8012 32.7971 51.4286 33.3334C51.0559 33.8696 50.5263 34.2876 49.9066 34.5344C49.2869 34.7812 48.6051 34.8458 47.9472 34.72C47.2894 34.5941 46.6851 34.2836 46.2108 33.8275C45.7365 33.3715 45.4135 32.7905 45.2827 32.1579C45.1518 31.5254 45.219 30.8697 45.4757 30.2739C45.7323 29.678 46.167 29.1687 46.7247 28.8104C47.2824 28.4521 47.9381 28.2609 48.6088 28.2609C49.5082 28.2609 50.3708 28.6044 51.0068 29.216C51.6428 29.8275 52.0001 30.6569 52.0001 31.5217ZM58.7827 19.5652H27.1306C26.5309 19.5652 25.9559 19.3362 25.5319 18.9285C25.1079 18.5208 24.8697 17.9679 24.8697 17.3913C24.8697 16.8147 25.1079 16.2618 25.5319 15.8541C25.9559 15.4464 26.5309 15.2174 27.1306 15.2174H58.7827C59.3824 15.2174 59.9574 15.4464 60.3814 15.8541C60.8054 16.2618 61.0436 16.8147 61.0436 17.3913C61.0436 17.9679 60.8054 18.5208 60.3814 18.9285C59.9574 19.3362 59.3824 19.5652 58.7827 19.5652ZM15.8262 71.7391H36.174C36.7737 71.7391 37.3487 71.9682 37.7727 72.3759C38.1967 72.7835 38.4349 73.3365 38.4349 73.913C38.4349 74.4896 38.1967 75.0425 37.7727 75.4502C37.3487 75.8579 36.7737 76.087 36.174 76.087H15.8262C15.2266 76.087 14.6515 75.8579 14.2275 75.4502C13.8035 75.0425 13.5653 74.4896 13.5653 73.913C13.5653 73.3365 13.8035 72.7835 14.2275 72.3759C14.6515 71.9682 15.2266 71.7391 15.8262 71.7391ZM38.4349 63.0435C38.4349 63.62 38.1967 64.173 37.7727 64.5807C37.3487 64.9884 36.7737 65.2174 36.174 65.2174H15.8262C15.2266 65.2174 14.6515 64.9884 14.2275 64.5807C13.8035 64.173 13.5653 63.62 13.5653 63.0435C13.5653 62.4669 13.8035 61.914 14.2275 61.5063C14.6515 61.0986 15.2266 60.8696 15.8262 60.8696H36.174C36.7737 60.8696 37.3487 61.0986 37.7727 61.5063C38.1967 61.914 38.4349 62.4669 38.4349 63.0435Z" fill="black"/>
</g>
<defs>
<clipPath id="clip0_25_208">
<rect width="104" height="100" fill="white"/>
</clipPath>
</defs>
</svg>
