<svg width="100" height="100" viewBox="0 0 100 100" fill="none" xmlns="http://www.w3.org/2000/svg">
<g clip-path="url(#clip0_25_227)">
<path d="M25 83.775C25 68.0125 43.75 71.1666 43.75 64.8625C43.9596 62.6238 43.3528 60.3849 42.0417 58.5583C40.5464 57.1405 39.3685 55.422 38.5856 53.5159C37.8028 51.6098 37.4328 49.5595 37.5 47.5C37.2965 43.968 38.4955 40.4985 40.8362 37.8457C43.1769 35.1928 46.4702 33.5712 50 33.3333C53.5298 33.5712 56.8231 35.1928 59.1638 37.8457C61.5045 40.4985 62.7035 43.968 62.5 47.5C62.575 49.5655 62.2023 51.6229 61.4076 53.5309C60.6129 55.4389 59.4149 57.1525 57.8958 58.5541C56.6374 60.4048 56.0561 62.6329 56.25 64.8625C56.25 71.1666 75 68.0166 75 83.7791C75 83.7791 70.0208 87.5041 50 87.5041C29.9792 87.5041 25 83.775 25 83.775Z" stroke="black" stroke-width="4" stroke-miterlimit="10"/>
<path d="M22.8583 66.5292C20.4875 66.4208 18.3958 66.2583 16.5583 66.0542C12.2453 65.9686 8.00814 64.9043 4.16663 62.9417C4.16663 47.1792 22.9166 50.3333 22.9166 44.0292C23.1262 41.7905 22.5195 39.5516 21.2083 37.725C19.713 36.3072 18.5351 34.5887 17.7523 32.6826C16.9694 30.7765 16.5994 28.7262 16.6666 26.6667C16.4632 23.1347 17.6621 19.6651 20.0028 17.0123C22.3435 14.3595 25.6368 12.7379 29.1666 12.5C32.6965 12.7379 35.9897 14.3595 38.3304 17.0123C40.6711 19.6651 41.8701 23.1347 41.6666 26.6667" stroke="black" stroke-width="4" stroke-miterlimit="10"/>
<path d="M77.1416 66.5292C79.5124 66.4208 81.6041 66.2583 83.4416 66.0542C87.7546 65.9686 91.9918 64.9043 95.8333 62.9417C95.8333 47.1792 77.0833 50.3333 77.0833 44.0292C76.8737 41.7905 77.4804 39.5516 78.7916 37.725C80.2869 36.3072 81.4648 34.5887 82.2476 32.6826C83.0305 30.7765 83.4005 28.7262 83.3333 26.6667C83.5367 23.1347 82.3378 19.6651 79.9971 17.0123C77.6564 14.3595 74.3631 12.7379 70.8333 12.5C67.3034 12.7379 64.0102 14.3595 61.6695 17.0123C59.3288 19.6651 58.1298 23.1347 58.3333 26.6667" stroke="black" stroke-width="4" stroke-miterlimit="10"/>
</g>
<defs>
<clipPath id="clip0_25_227">
<rect width="100" height="100" fill="white"/>
</clipPath>
</defs>
</svg>
