<svg width="100" height="100" viewBox="0 0 100 100" fill="none" xmlns="http://www.w3.org/2000/svg">
<g clip-path="url(#clip0_25_212)">
<path d="M50 4.375L12.5 16.875V54.7917C12.5 73.75 40.2083 90.625 47.9167 95.2083C48.5333 95.6204 49.2583 95.8403 50 95.8403C50.7417 95.8403 51.4667 95.6204 52.0833 95.2083C60 90.8333 87.5 73.75 87.5 54.7917V16.875L50 4.375ZM79.1667 54.7917C79.1667 65.2083 64.375 78.5417 50 86.875C23.75 70.625 20.8333 59.1667 20.8333 54.7917V22.9167L50 13.125L79.1667 22.9167V54.7917Z" fill="black"/>
<path d="M38.125 25.2083C35.9986 26.9107 34.2783 29.0654 33.0891 31.516C31.8998 33.9665 31.2716 36.6512 31.25 39.375C31.25 40.4801 31.689 41.5399 32.4704 42.3213C33.2518 43.1027 34.3116 43.5417 35.4167 43.5417C36.5217 43.5417 37.5815 43.1027 38.3629 42.3213C39.1443 41.5399 39.5833 40.4801 39.5833 39.375C39.6353 37.8694 39.9948 36.3904 40.6397 35.0289C41.2846 33.6674 42.2013 32.4523 43.3333 31.4583C44.564 30.5165 45.9791 29.8443 47.4866 29.4853C48.9941 29.1264 50.5603 29.0888 52.0833 29.375C54.2425 29.7379 56.2278 30.7854 57.7462 32.3629C59.2645 33.9404 60.2355 35.9643 60.5157 38.1357C60.7958 40.3072 60.3704 42.5113 59.3023 44.4225C58.2341 46.3337 56.5797 47.8509 54.5833 48.75C51.0483 50.3433 48.2802 53.261 46.875 56.875C46.4628 57.8974 46.4725 59.0415 46.902 60.0567C47.3315 61.0719 48.1458 61.8756 49.1667 62.2917H50.8333C51.6634 62.2905 52.4722 62.0283 53.1451 61.5423C53.8181 61.0563 54.3212 60.371 54.5833 59.5833C55.3191 58.1514 56.4847 56.9858 57.9167 56.25C61.4632 54.6042 64.3986 51.8794 66.3036 48.4651C68.2085 45.0508 68.9854 41.1217 68.5232 37.2393C68.061 33.3569 66.3834 29.72 63.7301 26.8484C61.0769 23.9767 57.5838 22.0172 53.75 21.25C51.0181 20.6265 48.1773 20.6602 45.461 21.3483C42.7447 22.0365 40.2305 23.3594 38.125 25.2083Z" fill="black"/>
<path d="M49.9999 79.1667C52.3011 79.1667 54.1666 77.3012 54.1666 75C54.1666 72.6988 52.3011 70.8333 49.9999 70.8333C47.6987 70.8333 45.8333 72.6988 45.8333 75C45.8333 77.3012 47.6987 79.1667 49.9999 79.1667Z" fill="black"/>
</g>
<defs>
<clipPath id="clip0_25_212">
<rect width="100" height="100" fill="white"/>
</clipPath>
</defs>
</svg>
