<svg width="57" height="104" viewBox="0 0 57 104" fill="none" xmlns="http://www.w3.org/2000/svg">
<path d="M27.9657 0.777649L24.9219 10.1825L20.8344 1.4353L19.3125 10.4017L13.5126 1.98156L14.3688 14.0997C17.9625 18.2325 37.9188 18.2936 41.5657 14.0997L42.3251 1.98156L36.5251 10.4017L35.0032 1.4353L30.9157 10.0747L27.9688 0.781242L27.9657 0.777649ZM28.2844 21.7508C19.7219 21.7508 12.7719 31.9642 12.7719 44.5495C12.7719 51.2447 14.8125 57.2355 17.9438 61.4078C1.35317 65.7562 0.268799 81.0081 0.268799 103.279H56.5438C56.5438 81.0944 56.7813 64.998 38.9876 60.9945C41.9219 56.8437 43.7969 51.0039 43.7969 44.5495C43.7969 31.9642 36.8469 21.7508 28.2844 21.7508Z" fill="black"/>
</svg>
